<svg width="70" height="70" xmlns="http://www.w3.org/2000/svg"
   xmlns:xlink="http://www.w3.org/1999/xlink" viewBox="0 0 50 50" version="1.1">
   <path fill="#d0a77f" d="M41.191 6.02c-1.136-.137-1.761 1.207-2.402 2.847-1.691 4.344-6.66 7.113-11.02 8.024a6.47 6.47 0 0 0-7.414.605c-4.304-.34-7.492-5.004-7.527-5.055L11 9.711v9.637a5.426 5.426 0 0 0-.844 1.93c-2.05-1.434-4.437-1.731-6.195-.56-.977.65-1.621 1.669-1.86 2.942-.347 1.848.2 3.961 1.493 5.805 1.594 2.262 3.89 3.547 5.969 3.547a4.41 4.41 0 0 0 2.476-.73c.98-.65 1.625-1.669 1.863-2.942a6.293 6.293 0 0 0 .082-1.563c.489.141.996.223 1.516.223.164 0 .324-.016.488-.031.02.59-.015 1.172-.12 1.734-.34 1.82-1.282 3.29-2.723 4.246a5.79 5.79 0 0 1-1.235.617c1.07.676 2.246 1.332 3.371 1.825 4.024 1.761 7.778 2.636 11.156 2.636 2.844 0 5.41-.636 7.657-1.875.523.285 1.047.555 1.562.79 2.723 1.242 5.418 2.144 7.422 2.507.04.227.086.457.16.696.739 2.394 4.707 3.601 5.496 3.82l1.266.347V44c.004-1.64-.113-5.594-1.23-6.8-.997-1.079-2.329-1.454-3.524-1.032-1.414-1.184-3.547-2.5-6.031-3.7 4.48-6.863 3.922-20.25 3.515-23.366-.21-1.579-.39-2.942-1.539-3.082zM24.5 18c2.48 0 4.5 2.02 4.5 4.5 0 .281-.035.555-.082.824A2.998 2.998 0 0 0 26 21c-.086 0-.164.02-.25.027.71.118 1.25.73 1.25 1.473a1.5 1.5 0 0 1-3 0c0-.406.164-.773.426-1.043A2.988 2.988 0 0 0 23 24c0 1.422.992 2.61 2.324 2.918-.27.047-.543.082-.824.082-2.48 0-4.5-2.02-4.5-4.5s2.02-4.5 4.5-4.5zm-9 1c1.137 0 2.191.555 2.844 1.465-.121.36-.203.73-.266 1.113A2.47 2.47 0 0 0 16.5 21c-.07 0-.137.016-.207.02a1.249 1.249 0 0 1-.21 2.48 1.248 1.248 0 1 1-.895-2.121 2.493 2.493 0 0 0 .843 4.574A3.443 3.443 0 0 1 15.5 26a3.477 3.477 0 0 1-2.047-.66l-.09-.063a9.296 9.296 0 0 0-.957-1.742c-.11-.152-.226-.297-.34-.441A3.37 3.37 0 0 1 12 22.5c0-1.93 1.57-3.5 3.5-3.5zM6 22c1.105 0 2 1.117 2 2.5S7.105 27 6 27s-2-1.117-2-2.5.895-2.5 2-2.5zm25 6s1.234.563 2.117 1.465l.016.015c.086.086.168.176.242.27.398.484.668 1.047.61 1.66l.003.004c-.008.086-.02.176-.039.262-.058.222-.168.449-.308.683 1.23.407 2.535.91 3.875 1.516 2.46 1.125 4.683 2.422 6.132 3.559-.195.289-.351.62-.464.988-1.809-.352-4.215-1.168-6.696-2.297-1.484-.68-3.047-1.64-4.367-2.527a5.619 5.619 0 0 1-1.324.32C26.668 34.461 20 32 20 32s11.863.656 11.863-1.656C31.863 29.19 31 28 31 28z" id="surface1"/>
</svg>