<svg width="100" height="68" xmlns="http://www.w3.org/2000/svg"
    xmlns:xlink="http://www.w3.org/1999/xlink" viewBox="0 0 101 49" fill="#fff" fill-rule="evenodd" stroke="#000" stroke-linecap="round" stroke-linejoin="round">
    <use xlink:href="#A" x=".5" y=".5"/>
    <symbol id="A" overflow="visible">
        <g stroke="none" fill-rule="nonzero">
            <path d="M33.396.215l6.587 22.12L46.57.215h17.85v2.198l-6.72 11.44c2.36.75 4.148 2.1 5.36 4.084s1.818 4.293 1.818 6.953c0 3.3-.885 6.057-2.657 8.3s-4.065 3.364-6.88 3.364c-2.12 0-3.968-.667-5.54-1.996s-2.74-3.133-3.497-5.407l3.723-1.525c.545 1.376 1.265 2.46 2.158 3.253.86.78 2 1.206 3.156 1.188 1.272 0 2.347-.703 3.225-2.108s1.317-3.095 1.317-5.07c0-2.184-.47-3.875-1.407-5.07-1.1-1.405-2.802-2.108-5.135-2.108h-1.82V15.56l6.36-10.857h-7.673l-.437.734-9.335 31.12h-.454l-6.813-22.522-6.814 22.524H25.9L15 .215h4.77l6.587 22.12 4.45-14.906-2.18-7.213h4.77z" fill="#d0a77f"/>
            <g fill="#d0a77f">
                <path d="M83.36.01l.773 4.64-2.745 5.168s-1.05-2.192-2.794-3.406c-1.47-1.022-2.427-1.245-3.922-.94-1.92.392-4.102 2.663-5.055 5.462-1.138 3.35-1.15 4.97-1.2 6.46-.064 2.387.317 3.798.317 3.798s-1.66-3.035-1.644-7.48c.01-3.172.515-6.048 2-8.887C70.397 2.34 72.34.833 74.065.646c1.784-.18 3.202.678 4.28 1.586 1.144.965 2.287 3.073 2.287 3.073L83.326 0zm.336 26.25s-1.2 2.146-1.96 2.956-2.1 2.26-3.765 2.994-2.536.86-4.18.705-3.17-1.096-3.705-1.488-1.903-1.548-2.676-2.623-1.982-3.23-1.982-3.23l1.092 3.083c.242.526.988 2.14 2.058 3.543.986 1.3 2.905 3.563 5.816 4.07s4.914-.783 5.4-1.096 1.54-1.175 2.2-1.875c.7-.73 1.343-1.658 1.715-2.216.263-.407.694-1.234.694-1.234l-.686-3.58zM5.802 47.538h-.88l-.942-3.813q-.042-.162-.094-.383-.047-.222-.085-.422-.047-.234-.1-.477 0 0-.1.48 0 0-.1.422-.047.217-.1.38l-.946 3.813h-.88L0 41.536h.772l.975 3.813q.066.268.122.533.06.264.104.473.052.247.094.47.057-.294.118-.58.028-.12.057-.25l.057-.26.057-.247.052-.213.946-3.737h.706l.998 3.95.06.247q.028.124.052.256.028.132.057.25.06.285.118.584.005 0 .038-.145l.075-.37.104-.48q.057-.256.113-.477l.96-3.813h.768l-1.6 6.003z"/>
                <use xlink:href="#C"/>
                <use xlink:href="#D"/>
                <use xlink:href="#E"/>
                <use xlink:href="#F"/>
                <path d="M28.936 41.95v-.733h.697v.733h-.697zm0 5.6v-4.6h.697v4.6h-.697z"/>
                <use xlink:href="#E" x="15.822"/>
                <path d="M35.6 45.396q0 .362.085.67.085.303.226.524.14.217.358.34.22.12.532.12.452 0 .725-.2.273-.2.367-.507l.612.192q-.066.192-.184.388-.118.192-.315.35-.198.153-.494.256-.292.098-.7.098-.928 0-1.413-.6-.485-.6-.485-1.8 0-.648.146-1.095.15-.452.405-.733.254-.28.593-.405.34-.128.725-.128.527 0 .88.187.683.362.87 1.295.1.447.1.967v.102H35.6zm2.317-.588q0-.77-.32-1.082-.315-.315-.833-.315-.367 0-.716.28-.424.328-.447 1.116h2.317z"/>
                <use xlink:href="#F" x="20.229"/>
                <path d="M49.537 45.396q0 .362.085.67.085.303.226.524.14.217.358.34.22.12.532.12.452 0 .725-.2.273-.2.367-.507l.612.192q-.066.192-.184.388-.118.192-.315.35-.198.153-.494.256-.292.098-.7.098-.928 0-1.413-.6-.485-.6-.485-1.8 0-.648.146-1.095.15-.452.405-.733.254-.28.593-.405.34-.128.725-.128.527 0 .88.187.683.362.87 1.295.1.447.1.967v.102h-3.014zm2.317-.588q0-.77-.32-1.082-.315-.315-.833-.315-.367 0-.716.28-.424.328-.447 1.116h2.317zm5.122.405q0 2.4-1.535 2.4-.476 0-.8-.187-.3-.192-.5-.614h-.01q0 .1-.005.23-.005.12-.01.222l-.014.175q-.005.072-.01.1h-.673q.005-.038.01-.128.005-.094.005-.222.005-.128.005-.28.005-.153.005-.32v-5.37h.697v1.802q0 .128-.005.247 0 .115-.005.205-.005.107-.01.2h.02q.193-.443.5-.635.32-.192.8-.192.8 0 1.163.588.372.588.372 1.78zm-.73.026q0-.477-.052-.818-.052-.34-.174-.558-.118-.222-.306-.324-.184-.102-.452-.102-.273 0-.485.098-.207.098-.348.315-.14.217-.217.57-.07.354-.07.865 0 .494.07.83.075.337.217.55.14.2.348.303.207.1.48.1.254 0 .438-.098.188-.098.3-.315.122-.217.18-.562.06-.35.06-.844zm6.334-3.128q-.46 0-.82.17-.358.17-.598.486-.24.315-.367.758-.122.443-.122.984 0 .54.132.993.137.447.38.77.25.324.612.503.363.18.815.18.315 0 .574-.1.26-.094.47-.26.212-.166.377-.392.165-.23.292-.507l.603.332q-.146.337-.363.626-.217.3-.5.503-.292.213-.66.337-.367.12-.824.12-.66 0-1.158-.23-.494-.234-.83-.648-.33-.418-.5-.988-.165-.57-.165-1.248 0-.703.174-1.27.18-.567.513-.963.34-.4.833-.614.494-.217 1.125-.217.866 0 1.45.375.584.375.857 1.112l-.697.256q-.075-.213-.207-.405-.132-.196-.33-.345-.198-.15-.46-.24-.264-.1-.603-.1z"/>
                <use xlink:href="#C" x="57.937"/>
                <path d="M72.826 47.538v-2.92q0-.337-.047-.562-.042-.226-.146-.362-.1-.14-.264-.196-.165-.06-.405-.06-.245 0-.447.098-.198.094-.34.277-.14.18-.22.447-.075.264-.075.6v2.67h-.697v-3.626q0 0 0-.303 0-.162-.005-.303-.005-.145-.01-.247-.005-.102-.005-.132h.655q.005.02.005.115.005.094.01.217.01.12.01.247.005.124.005.2h.014q.1-.2.217-.362.122-.162.278-.273.16-.115.363-.175.207-.064.48-.064.348 0 .598.094.25.094.4.3.165.196.24.507.075.307.075.733v3.072h-.697zm4.888-1.273q0 .324-.113.58-.113.25-.33.426-.217.17-.532.264-.315.1-.72.1-.363 0-.655-.064-.292-.06-.513-.196-.217-.136-.367-.358-.146-.226-.217-.55l.612-.132q.1.37.367.545.278.17.772.17.226 0 .4-.034.188-.034.325-.115.137-.085.212-.222.075-.14.075-.345 0-.2-.1-.34-.1-.136-.25-.226-.155-.1-.38-.153l-.5-.15q-.25-.072-.5-.162-.245-.1-.443-.234-.198-.15-.325-.366-.122-.217-.122-.545 0-.63.405-.96.4-.332 1.2-.332.692 0 1.097.268.4.268.518.86l-.626.085q-.033-.18-.127-.298-.094-.124-.226-.196-.132-.077-.297-.107-.16-.034-.34-.034-.47 0-.697.158-.22.158-.22.477 0 .187.08.3.085.12.23.205.15.08.358.14l.46.132q0 0 .34.098.174.055.34.132.165.072.306.175.146.098.254.24.108.14.17.328.066.187.066.435z"/>
                <use xlink:href="#C" x="70.707"/>
                <use xlink:href="#D" x="70.707"/>
                <path d="M87.188 47.505q-.16.047-.325.072-.165.03-.38.03-.833 0-.833-1.044v-3.075h-.485v-.558h.513l.202-1.03h.466v1.03h.772v.558h-.772v2.9q0 .332.1.47.1.132.34.132.1 0 .193-.017.1-.017.212-.043v.567zm.588-5.555v-.733h.697v.733h-.697zm0 5.6v-4.6h.697v4.6h-.697zm2.424-4.622v2.923q0 .337.042.562.047.226.146.366.104.136.268.196.165.055.405.055.245 0 .443-.094.202-.098.344-.277.14-.183.217-.447.08-.268.08-.614v-2.67h.697v3.626q0 0 0 .303 0 .162.005.307.005.14.01.243.005.102.005.132h-.655q-.005-.02-.01-.115 0-.094-.01-.213-.005-.124-.01-.247 0-.128 0-.213h-.014q-.1.2-.22.362-.118.162-.278.277-.155.1-.363.17-.202.064-.476.064-.348 0-.598-.094-.25-.094-.414-.3-.16-.196-.235-.503-.075-.307-.075-.737v-3.062h.697zm6.165 4.6v-2.92q0-.337-.042-.562-.038-.226-.127-.362-.1-.14-.235-.196-.146-.06-.363-.06-.22 0-.4.098-.174.094-.3.277-.122.18-.193.447-.066.264-.066.6v2.67h-.692v-3.626q0 0 0-.303 0-.162-.005-.303-.005-.145-.01-.247-.005-.102-.005-.132h.655q.005.02.005.115.005.094.01.217.01.12.01.247.005.124.005.2h.014q.094-.2.202-.362.108-.162.25-.273.146-.115.334-.175.188-.064.433-.064.476 0 .75.2.278.2.386.665h.01q.094-.2.207-.362.118-.162.268-.273.155-.115.348-.175.193-.064.443-.064.315 0 .542.094.23.094.377.3.15.196.217.507.07.307.07.733v3.072h-.687v-2.893q0-.337-.038-.562-.038-.226-.132-.362-.1-.14-.235-.196-.146-.06-.358-.06-.22 0-.4.094-.174.1-.3.268-.127.18-.193.447-.066.268-.066.622v2.67h-.687z"/>
            </g>
        </g>
    </symbol>
    <defs >
        <path id="C" d="M11.358 45.23q0 1.2-.485 1.802-.48.592-1.4.592-.438 0-.782-.145-.34-.145-.58-.443-.235-.298-.363-.746-.122-.452-.122-1.06 0-2.386 1.87-2.386.485 0 .838.15.358.15.584.447.226.298.33.746.108.447.108 1.044zm-.73 0q0-.537-.075-.886-.07-.35-.217-.558-.146-.2-.358-.3-.207-.085-.466-.085-.268 0-.485.1-.212.085-.363.298-.15.2-.23.558-.075.35-.075.873 0 .537.085.9.085.35.23.558.15.2.353.294.202.085.443.085.268 0 .48-.08.217-.085.367-.294.15-.2.23-.562.08-.354.08-.9z"/>
        <path id="D" d="M12.248 47.538v-3.536q0 0 0-.298 0-.15-.005-.3-.005-.14-.01-.264-.005-.124-.01-.222h.66q.005.098.01.226.005.124.01.256.01.132.01.25v.2h.02q.075-.264.155-.456.08-.196.193-.32.113-.128.268-.187.155-.064.372-.064.085 0 .16.017.08.013.122.026v.703q-.07-.02-.165-.03-.1-.013-.207-.013-.24 0-.4.12-.165.12-.273.332-.104.2-.155.503-.047.3-.047.635v2.403h-.697z"/>
        <path id="E" d="M17.508 46.798q-.193.443-.513.635-.315.192-.786.192-.8 0-1.163-.588-.372-.588-.372-1.78 0-2.4 1.535-2.4.476 0 .8.192.315.192.5.6h.01q0-.043-.005-.136v-.187q-.005-.102-.005-.192v-1.916h.697v5.373q0 .166 0 .32.005.153.005.28.005.128.01.222.005.1.01.128h-.664q-.01-.043-.014-.12-.005-.08-.014-.183-.005-.102-.01-.213 0-.115 0-.226h-.02zm-2.105-1.568q0 .477.052.818.052.34.17.562.122.217.306.32.188.102.457.102.273 0 .48-.098.212-.098.353-.315.14-.222.212-.575.075-.354.075-.865 0-.5-.075-.827-.07-.34-.217-.55-.14-.2-.348-.298-.202-.094-.476-.094-.254 0-.443.098-.184.098-.306.315-.122.217-.184.567-.057.345-.057.84z"/>
        <path id="F" d="M26.784 47.538h-.88l-.942-3.813q-.042-.162-.094-.383-.047-.222-.085-.422-.047-.234-.1-.477 0 0-.1.48 0 0-.1.422-.047.217-.1.38l-.946 3.813h-.88l-1.606-6.003h.772l.975 3.813q.066.268.122.533.06.264.104.473.052.247.094.47.057-.294.118-.58.028-.12.057-.25l.057-.26.057-.247.052-.213.946-3.737h.706l.998 3.95.06.247q.028.124.052.256.028.132.057.25.06.285.118.584.005 0 .038-.145l.075-.37.104-.48q.057-.256.113-.477l.96-3.813h.768l-1.6 6.003z"/>
    </defs>
</svg>